# xmcd
#
# Track frame offsets:
#	150
#	10627
#	21753
#	34419
#	45366
#	55927
#	66939
#	78464
#	88534
#	98866
#	111610
#	121290
#	130647
#	140158
#	150157
#	159972
#	171815
#	182776
#	194495
#	205644
#	217224
#	229721
#	240294
#	250358
#	260244
#	270357
#	280511
#	290069
#	300041
#	314096
#	324867
#	338030
#
# Disc length: 4648 seconds
#
# Revision: 0
# Processed by: cddbd v1.5.2PL0 Copyright (c) Steve Scherf et al.
# Submitted via: EasyCDDAExtractor 12.0.1.1
#
DISCID=bf122620
DTITLE=Buck Owens - Act Naturally: The Buck Owens Recordings 1953-1964 [cd3]
DYEAR=2008
DGENRE=Country
TTITLE0=Under The Influence Of Love
TTITLE1=Nobody's Fool But Yours
TTITLE2=Goin' Down To The River
TTITLE3=Bad Bad Dream
TTITLE4=Down On The Corner Of Love
TTITLE5=The House Down The Block
TTITLE6=Fool Me Again
TTITLE7=You're For Me
TTITLE8=Blues For Life
TTITLE9=The King Of Fools
TTITLE10=Bring It To Jesus
TTITLE11=All The Way With Jesus
TTITLE12=Mexican Polka
TTITLE13=Country Polka
TTITLE14=Mirror, Mirror On The Wall
TTITLE15=Storm Of Love
TTITLE16=One Way Love
TTITLE17=Kickin' Our Hearts Around
TTITLE18=Save The Last Dance For Me
TTITLE19=The King Of Fools
TTITLE20=I Can't Stop (My Lovin' You)
TTITLE21=Act Naturally
TTITLE22=Over And Over Again
TTITLE23=My Heart Skips A Beat
TTITLE24=There's Gonna Come A Day
TTITLE25=Diggy Liggy Lo
TTITLE26=Orange Blossom Special
TTITLE27=Cotton Fields
TTITLE28=Touch Me
TTITLE29=Saw Mill
TTITLE30=Sweethearts In Heaven
TTITLE31=Sally Was A Good Old Girl
EXTD=
EXTT0=
EXTT1=
EXTT2=
EXTT3=
EXTT4=
EXTT5=
EXTT6=
EXTT7=
EXTT8=
EXTT9=
EXTT10=
EXTT11=
EXTT12=
EXTT13=
EXTT14=
EXTT15=
EXTT16=
EXTT17=
EXTT18=
EXTT19=
EXTT20=
EXTT21=
EXTT22=
EXTT23=
EXTT24=
EXTT25=
EXTT26=
EXTT27=
EXTT28=
EXTT29=
EXTT30=
EXTT31=
PLAYORDER=
